{"title":"Lewis S09E05 - What Lies Tangled pt1 x264 RB58.mp4","uid":12685651,"size":521596349,"categoryP":"video","categoryS":"tv_shows","magnet":"?xt=urn:btih:cd49f175b3d885e4f763f75a0bd962fde562514e&amp;dn=Lewis+S09E05+-+What+Lies+Tangled+pt1+x264+RB58.mp4&amp;tr=udp%3A%2F%2Ftracker.leechers-paradise.org%3A6969&amp;tr=udp%3A%2F%2Fzer0day.ch%3A1337&amp;tr=udp%3A%2F%2Fopen.demonii.com%3A1337&amp;tr=udp%3A%2F%2Ftracker.coppersurfer.tk%3A6969&amp;tr=udp%3A%2F%2Fexodus.desync.com%3A6969","seeders":2,"leechers":0,"uploader":"RedBaron58","files":1,"time":1446604162,"description":"Lewis S09E05 - What Lies Tangled pt1 x264 mp4\r\n \nhttp://www.imdb.com/title/tt0874608/\r\n\r\n\r\nPlease be patient My intial upload speed is limited.\r\nThank you for your kind comments and feedback on my other torrents, your feedback is welcome.\r\n\r\n\r\nAbout the Episode:\r\nAn idyllic summer day in Oxford is torn asunder when a parcel bomb claims the life of eminent \r\nmathematician Adam Capstone, a genius in the field of `Knot Theory'. \r\nAs Lewis and Hathaway investigate, the discover that, while the victim's academic reputation was \r\nbeyond reproach, his private life was far more dubious. It emerges Capstone was a man of carnal \r\nappetites, who had a string of affairs with young students, betraying his chemistry professor wife \r\nElizabeth, providing her with a clear motive to do away with her cheating spouse. \r\nAs the detectives work to identify the killer bomber, the case becomes a personal challenge for Lewis, \r\nwho fears he may not be rewarded with another contract should he fail to impress Moody before his \r\nsix-month trip to New Zealand.\r\n \r\nStarring Kevin Whately, Laurence Fox and Steve Toussaint\r\n\r\n\r\nI hope you enjoy.\r\n\r\n\r\nTechnical:\r\n\r\nGeneral\r\nComplete name                            : H:Lewis S09E05 - What Lies Tangled pt1 x264 RB58.mp4\r\nFormat                                   : MPEG-4\r\nFormat profile                           : Base Media\r\nCodec ID                                 : isom\r\nFile size                                : 497 MiB\r\nDuration                                 : 45mn 35s\r\nOverall bit rate                         : 1 526 Kbps\r\nWriting application                      : Lavf54.63.104\r\n\r\nVideo\r\nID                                       : 1\r\nFormat                                   : AVC\r\nFormat/Info                              : Advanced Video Codec\r\nFormat profile                           :   \r\nFormat settings, CABAC                   : Yes\r\nFormat settings, ReFrames                : 4 frames\r\nCodec ID                                 : avc1\r\nCodec ID/Info                            : Advanced Video Coding\r\nDuration                                 : 45mn 35s\r\nBit rate                                 : 1 400 Kbps\r\nWidth                                    : 832 pixels\r\nHeight                                   : 468 pixels\r\nDisplay aspect ratio                     : 16:9\r\nFrame rate mode                          : Constant\r\nFrame rate                               : 25.000 fps\r\nColor space                              : YUV\r\nChroma subsampling                       : 4:2:0\r\nBit depth                                : 8 bits\r\nScan type                                : Progressive\r\nBits/(Pixel*Frame)                       : 0.144\r\nStream size                              : 456 MiB (92%)\r\nWriting library                          : x264 core 123 r2189 35cf912\r\nEncoding settings                        : cabac=1 / ref=3 / deblock=1:0:0\r\n\r\nAudio\r\nID                                       : 2\r\nFormat                                   : AAC\r\nFormat/Info                              : Advanced Audio Codec\r\nFormat profile                           : LC\r\nCodec ID                                 : 40\r\nDuration                                 : 45mn 34s\r\nBit rate mode                            : Constant\r\nBit rate                                 : 117 Kbps\r\nChannel(s)                               : 2 channels\r\nChannel positions                        : Front: L R\r\nSampling rate                            : 48.0 KHz\r\nCompression mode                         : Lossy\r\nStream size                              : 38.1 MiB (8%)\r\nLanguage                                 : English","torrent":{"xt":"urn:btih:cd49f175b3d885e4f763f75a0bd962fde562514e","amp;dn":"Lewis+S09E05+-+What+Lies+Tangled+pt1+x264+RB58.mp4","amp;tr":["udp%3A%2F%2Ftracker.leechers-paradise.org%3A6969","udp%3A%2F%2Fzer0day.ch%3A1337","udp%3A%2F%2Fopen.demonii.com%3A1337","udp%3A%2F%2Ftracker.coppersurfer.tk%3A6969","udp%3A%2F%2Fexodus.desync.com%3A6969"],"infoHash":"cd49f175b3d885e4f763f75a0bd962fde562514e","infoHashBuffer":{"type":"Buffer","data":[205,73,241,117,179,216,133,228,247,99,247,90,11,217,98,253,229,98,81,78]},"announce":[],"urlList":[]}}